<svg width="145" height="147" viewBox="0 0 145 147" fill="none" xmlns="http://www.w3.org/2000/svg">
<rect x="5.5" y="5.5" width="123" height="123" rx="61.5" stroke="#FFFFFE" stroke-width="11"/>
<rect x="113.868" y="105" width="47.5853" height="15.5819" rx="7.79093" transform="rotate(44.2249 113.868 105)" fill="#FFFFFE"/>
<g clip-path="url(#clip0_171_214)">
<rect x="63" y="20" width="8" height="21" rx="4" fill="#FFFFFE"/>
<rect x="63" y="91.75" width="8" height="21" rx="4" fill="#FFFFFE"/>
<path d="M77.6691 33.5C79.8986 33.5 82.1168 33.8172 84.257 34.4414L86.4992 35.0947C87.5557 35.4028 88.553 35.8875 89.4484 36.5273C91.7909 38.2012 93.2776 40.8219 93.5119 43.6914L93.5793 44.5234C93.6241 45.0723 93.6295 45.6241 93.5959 46.1738L93.3977 49.4248C93.2278 52.1985 92.8553 54.9561 92.2844 57.6758L90.716 65.1445C90.6804 65.0921 90.6217 65.0556 90.552 65.0557L75.5461 65.0645L68.219 65.1084L61.0559 66.126C60.9577 66.1399 60.8846 66.2241 60.884 66.3232L60.8801 66.9854C60.8797 67.0804 60.9462 67.1623 61.0393 67.1816L88.9514 72.96C89.0385 72.9779 89.1227 72.9349 89.1643 72.8613L87.0861 83.4697L85.5412 90.5664C84.6079 94.853 81.7043 98.4472 77.7092 100.26C75.9068 101.077 73.9501 101.5 71.9709 101.5H61.1799C58.9718 101.5 56.7989 100.946 54.8596 99.8906C51.8962 98.2773 49.662 95.5921 48.6145 92.3848L46.9768 87.3721C47.0195 87.3992 47.072 87.4107 47.1252 87.3994L74.5334 81.5195C74.5963 81.506 74.6493 81.4623 74.675 81.4033L74.9631 80.7412C75.0191 80.6122 74.9279 80.4674 74.7873 80.4619L69.5686 80.2578L45.8664 81.2559C45.7472 81.2609 45.6586 81.3694 45.677 81.4873L41.6652 61.833L40.0363 44.376C39.791 41.7453 40.7985 39.1525 42.7551 37.377C43.6984 36.5211 44.8243 35.8908 46.0471 35.5342L48.7561 34.7441C50.4151 34.2603 52.1285 33.9866 53.8557 33.9297L66.8996 33.5H77.6691ZM59.2463 47C59.1805 47 59.1145 47.0066 59.05 47.0195L56.6467 47.5L53.1467 48.5L48.2082 50.2959C47.8712 50.4187 47.6467 50.739 47.6467 51.0977C47.6467 51.5876 48.0588 51.9774 48.5481 51.9502L56.6467 51.5L62.6467 51L70.1467 50.5L73.6877 50.0283C74.287 49.9482 74.2829 49.0799 73.6828 49.0049C73.6587 49.0019 73.635 48.9966 73.6115 48.9902L68.2277 47.5215C68.1741 47.5069 68.119 47.4967 68.0637 47.4912L63.1467 47H59.2463Z" fill="#FFFFFE"/>
</g>
<defs>
<clipPath id="clip0_171_214">
<rect width="53.6176" height="92.75" fill="white" transform="translate(40 20)"/>
</clipPath>
</defs>
</svg>
